<?xml version="1.0" standalone="no"?>
<!DOCTYPE svg PUBLIC "-//W3C//DTD SVG 20010904//EN"
 "http://www.w3.org/TR/2001/REC-SVG-20010904/DTD/svg10.dtd">
<svg version="1.0" xmlns="http://www.w3.org/2000/svg"
 width="512.000000pt" height="512.000000pt" viewBox="0 0 512.000000 512.000000"
 preserveAspectRatio="xMidYMid meet">

<g transform="translate(0.000000,512.000000) scale(0.100000,-0.100000)"
fill="#000000" stroke="none">
<path d="M2400 5054 c-352 -31 -642 -111 -938 -256 -784 -385 -1311 -1153
-1393 -2032 -14 -157 -7 -446 16 -596 155 -1022 897 -1842 1885 -2084 229 -56
353 -70 605 -69 235 0 340 11 553 59 731 163 1360 662 1697 1349 149 304 227
586 256 932 47 554 -116 1153 -439 1618 -397 573 -1009 953 -1697 1056 -125
19 -443 32 -545 23z m560 -774 c51 -26 124 -99 149 -149 40 -80 32 -214 -16
-289 -31 -47 -163 -138 -215 -147 -45 -8 -61 -26 -82 -89 -47 -140 -192 -514
-281 -726 -55 -130 -128 -339 -165 -473 -19 -69 -20 -84 -10 -134 17 -78 6
-146 -31 -200 -46 -67 -40 -80 73 -139 135 -71 219 -143 363 -315 188 -223
330 -325 525 -378 89 -25 131 -26 170 -6 49 26 65 67 65 175 0 85 -4 102 -29
152 -16 31 -46 73 -67 94 -44 42 -49 68 -18 84 16 9 29 6 65 -15 86 -50 136
-165 135 -310 0 -134 -27 -209 -89 -249 -107 -70 -289 -53 -467 43 -140 75
-461 312 -652 482 -146 130 -212 179 -239 179 -17 0 -37 -19 -76 -70 -69 -90
-140 -130 -233 -130 -114 0 -189 43 -226 128 -35 80 -20 147 47 216 47 49 91
67 182 76 41 4 78 12 83 17 5 5 21 64 34 130 14 66 40 180 59 254 40 153 59
247 76 369 20 146 40 266 55 322 7 29 21 79 29 111 8 33 22 102 31 155 9 54
21 129 27 167 8 48 20 82 40 109 15 22 28 49 28 61 0 27 -49 74 -157 150 -74
51 -88 65 -85 86 3 32 31 51 64 45 14 -3 59 -25 100 -50 40 -25 88 -49 106
-52 31 -6 37 -3 85 51 236 263 397 341 547 265z"/>
<path d="M2770 4132 c-31 -31 -45 -75 -55 -167 -18 -183 148 -182 205 2 30 96
27 125 -15 162 -47 41 -95 42 -135 3z"/>
<path d="M1795 1973 c-57 -15 -124 -84 -125 -129 0 -37 16 -53 63 -61 75 -12
130 43 144 143 5 40 4 44 -15 44 -11 0 -26 2 -34 4 -7 2 -22 1 -33 -1z"/>
</g>
</svg>
