<?xml version="1.0" standalone="yes"?>
<svg version="1.0" xmlns="http://www.w3.org/2000/svg" width="500pt" height="500pt" preserveAspectRatio="xMidYMid meet">
<path style="fill:rgba(0,0,0,0); stroke:none;" d="M0 0L0 32L32 32L32 0L0 0z"/>
<path style="fill:#27af89; stroke:none;" d="M5 2L5 30L15 25L12 21L16 22L13 13L18 13L18 23L29 17L29 15L18 9L17 12L15 12L14 11L16 7L5 2z"/>
<path style="fill:#b3e2d5; stroke:none;" d="M15.6667 8.33333L16.3333 8.66667L15.6667 8.33333z"/>
<path style="fill:#c6e9df; stroke:none;" d="M14.3333 9.66667L14.6667 10.3333L14.3333 9.66667z"/>
<path style="fill:#dd5052; stroke:none;" d="M15 9L15 11L17 11L17 9L15 9z"/>
<path style="fill:#dbeee7; stroke:none;" d="M17.3333 9.66667L17.6667 10.3333L17.3333 9.66667z"/>
<path style="fill:#d6a29e; stroke:none;" d="M15.6667 11.3333L16.3333 11.6667L15.6667 11.3333z"/>
<path style="fill:#ffffff; stroke:none;" d="M13 13L16 15L16 22L12 21C17.0139 28.6649 17.9996 16.4978 18 13L13 13z"/>
<path style="fill:#444444; stroke:none;" d="M15 26L19 24L15 26z"/>
</svg>
