<?xml version="1.0" standalone="no"?>
<!DOCTYPE svg PUBLIC "-//W3C//DTD SVG 20010904//EN"
 "http://www.w3.org/TR/2001/REC-SVG-20010904/DTD/svg10.dtd">
<svg version="1.0" xmlns="http://www.w3.org/2000/svg" width="500pt" height="500pt" preserveAspectRatio="xMidYMid meet">
<path style="fill:rgba(0,0,0,0.0); stroke:none;" d="M0 0L0 500L500 500L500 0L0 0z"/>
<path style="fill:#00ffff; stroke:none;" d="M84 27L85 28L84 27z"/>
<path style="fill:#27af89; stroke:none;" d="M232 385C224.53 384.255 213.393 380.978 211 373C196.615 366.712 189.006 352.234 189 337C188.999 333.307 187.729 326.478 190.603 323.603C193.931 320.276 215.068 320.278 218.397 323.603C220.47 325.675 219.991 329.336 220 332C228.024 332.417 233.165 336.905 234 345C249.738 344.998 246 332.523 246 320L246 246L245 246L245 252C237.811 252 228.842 252.81 222 250.262C214.909 247.62 216.819 241.564 212.397 238.027C210.068 236.165 206.728 237.205 204.603 234.682C200.816 230.184 201.08 209.018 207.059 206.603C211.274 204.901 217.523 206 222 206L255 206C262.984 206 275.94 202.912 278 213L293 217L294 219C291.917 228.613 294 241.013 294 251L294 319C294 326.666 293.948 334.334 294.001 342C294.016 344.159 293.525 348.427 296.318 349.172C299.429 350.003 303.519 346.467 306 345.011L330 330.989C362.509 311.896 395.576 293.818 428 274.603C436.971 269.287 446.11 264.25 455 258.796C458.193 256.837 462.747 254.39 462.623 250.036C462.447 243.818 450.573 239.475 446 236.85C427.586 226.279 409.446 215.235 391 204.719C316.414 162.199 242.762 117.22 169 73.2006C148.117 60.7379 126.922 48.7946 106 36.3966C101.778 33.8944 88.2851 22.983 84.0278 29.3187C80.1613 35.0726 83 50.185 83 57L83 129C83 210.951 82 292.979 82 375L82 440C82 446.597 79.441 460.035 83.0278 465.721C89.2705 475.619 112.659 457.49 119 453.85C147.061 437.743 175.201 421.756 203 405.201C210.837 400.533 229.032 393.992 232 385z"/>
<path style="fill:#00ffff; stroke:none;" d="M177 78L178 79L177 78M247 119L248 120L247 119z"/>
<path style="fill:#b7e4d8; stroke:none;" d="M250 129L250 130L255 130L250 129z"/>
<path style="fill:#8ad4bf; stroke:none;" d="M240 132L240 133L249 131L240 132z"/>
<path style="fill:#ffffff; stroke:none;" d="M269 185C270.879 176.684 276.697 168.672 276.907 160C277.425 138.54 252.873 121.065 234.214 135.769C216.384 149.818 224.191 186.071 246.039 190.521C254.055 192.153 261.239 186.067 269 185z"/>
<path style="fill:#afe2d3; stroke:none;" d="M233 136L237 135L233 136z"/>
<path style="fill:#89d3bf; stroke:none;" d="M262.667 134.333L263.333 134.667L262.667 134.333z"/>
<path style="fill:#99d9c7; stroke:none;" d="M264 135L267 137L264 135z"/>
<path style="fill:#67c7ac; stroke:none;" d="M231 136L231 139L232 139L233 136L231 136z"/>
<path style="fill:#9edbca; stroke:none;" d="M233 155L234 155C238.834 143.373 245.084 137.304 258 141C247.474 129.958 234.69 144.167 233 155z"/>
<path style="fill:#dd5052; stroke:none;" d="M251 138.792C227.644 139.199 227.053 181.86 250 182.231C273.134 182.604 274.601 138.381 251 138.792z"/>
<path style="fill:#5cc2a6; stroke:none;" d="M230 139L228 145L229 145L230 139z"/>
<path style="fill:#89d3bf; stroke:none;" d="M271 139L273 142L271 139z"/>
<path style="fill:#9ad9c7; stroke:none;" d="M258 141L258 142L263 144L263 143L258 141z"/>
<path style="fill:#65c6ab; stroke:none;" d="M273 143L275 151L276 151L273 143z"/>
<path style="fill:#9cdac8; stroke:none;" d="M263 144L268 158L269 158C268.569 152.725 267.957 146.707 263 144z"/>
<path style="fill:#00ffff; stroke:none;" d="M293 146L294 147L293 146z"/>
<path style="fill:#87d2bd; stroke:none;" d="M226 149L225 152L226 149z"/>
<path style="fill:#b4e3d6; stroke:none;" d="M276 152L276 156L277 156L276 152z"/>
<path style="fill:#b8e5d8; stroke:none;" d="M223 154L223 161L224 161L225 154L223 154z"/>
<path style="fill:#c2e9de; stroke:none;" d="M231 155L232 166L233 166L233 155L231 155z"/>
<path style="fill:#9edbca; stroke:none;" d="M277 157L275 170L276 170C277.055 165.332 280.211 161.312 277 157z"/>
<path style="fill:#96d8c6; stroke:none;" d="M269 158L268 165L269 165L269 158z"/>
<path style="fill:#00ffff; stroke:none;" d="M313 158L314 159L313 158z"/>
<path style="fill:#00ff00; stroke:none;" d="M315 159L316 160L315 159z"/>
<path style="fill:#69c8ad; stroke:none;" d="M233 164L233 167L234 167L233 164z"/>
<path style="fill:#71cab1; stroke:none;" d="M267 165L266 170L267 170L267 165z"/>
<path style="fill:#aae0d1; stroke:none;" d="M225 166L226 170L227 170L225 166z"/>
<path style="fill:#a7dfcf; stroke:none;" d="M234 167L236 176L237 176L234 167z"/>
<path style="fill:#c0e8dd; stroke:none;" d="M265 170L265 174L266 174L267 170L265 170z"/>
<path style="fill:#bae6da; stroke:none;" d="M227 172L229 180L230 180L227 172z"/>
<path style="fill:#92d6c4; stroke:none;" d="M264 172L258 179L258 180C262.336 179.115 265.779 176.742 264 172z"/>
<path style="fill:#c5eae0; stroke:none;" d="M273 172L272 176L273 176L273 172z"/>
<path style="fill:#9fdccb; stroke:none;" d="M237 176C240.917 183.094 248.915 184.577 256 182L256 181C248.18 182.14 243.844 179.601 237 176z"/>
<path style="fill:#00ff00; stroke:none;" d="M82 177L83 178L82 177z"/>
<path style="fill:#00ffff; stroke:none;" d="M82 178L83 179L82 178z"/>
<path style="fill:#6cc8ae; stroke:none;" d="M229 180L232 184L229 180z"/>
<path style="fill:#b2e2d5; stroke:none;" d="M270 180L269 184L270 184L270 180z"/>
<path style="fill:#00ff00; stroke:none;" d="M352 181L353 182L352 181z"/>
<path style="fill:#67c7ac; stroke:none;" d="M232 184L232 185L236 186L236 185L232 184z"/>
<path style="fill:#6bc8ae; stroke:none;" d="M264 186L264 187L269 186L264 186z"/>
<path style="fill:#a1dccc; stroke:none;" d="M260 187L260 188L264 187L260 187z"/>
<path style="fill:#8ad4bf; stroke:none;" d="M240.667 188.333L241.333 188.667L240.667 188.333z"/>
<path style="fill:#96d8c6; stroke:none;" d="M252 192L257 190L252 192z"/>
<path style="fill:#70cab1; stroke:none;" d="M244 190L247 192L244 190z"/>
<path style="fill:#cbece3; stroke:none;" d="M247 191L247 192L252 192L247 191z"/>
<path style="fill:#00ff00; stroke:none;" d="M369 191L370 192L369 191z"/>
<path style="fill:#00ffff; stroke:none;" d="M377 196L378 197L377 196M380 198L381 199L380 198z"/>
<path style="fill:#ffffff; stroke:none;" d="M276 206L227 206C221.357 206 211.438 204.084 206.318 206.603C202.291 208.585 202.133 233.223 205.603 235.972C210.849 240.127 228.401 237 235 237C238.341 237 243.8 236.063 245.972 239.318C249.381 244.426 247 257.003 247 263L247 318C247 324.614 248.942 335.002 245.682 340.956C241.893 347.876 223.732 349.1 220.603 340.981C218.817 336.345 222.591 326.35 218.397 323.028C214.194 319.699 190.142 320.223 189.148 326.059C186.677 340.565 190.041 357.765 201.464 367.702C219.22 383.15 257.885 379.794 270.892 360C279.426 347.013 276 327.813 276 313L276 206z"/>
<path style="fill:#dbece7; stroke:none;" d="M276 207L276 344L277 344L277 248C277 236.318 280.507 217.742 276 207z"/>
<path style="fill:#49bb9b; stroke:none;" d="M203 200L202 235L200 230L203 208z"/>
<path style="fill:#2e987a; stroke:none;" d="M277 209L277 302C277 316.149 280.041 334.386 276.022 348C273.852 355.351 269.22 360.822 265 367L296 351C290.965 339.116 294 321.787 294 309C294 279.626 290.747 248.124 294 219L293 217L278 213L277 209z"/>
<path style="fill:#2f9478; stroke:none;" d="M213 237C216.975 253.632 229.957 252 245 252L246 237L213 237z"/>
<path style="fill:#e0f3ee; stroke:none;" d="M246 238L246 341L247 341L247 269L246 238z"/>
<path style="fill:#00ffff; stroke:none;" d="M458 256L459 257L458 256M398 291L399 292L398 291M391 295L392 296L391 295M389 296L390 297L389 296M387 297L388 298L387 297M385 298L386 299L385 298z"/>
<path style="fill:#2f9478; stroke:none;" d="M220 332C220 343.646 222.685 345 234 345C233.547 336.279 228.516 332.2 220 332z"/>
<path style="fill:#00ffff; stroke:none;" d="M323 334L324 335L323 334z"/>
<path style="fill:#83bcac; stroke:none;" d="M276 344L276 347L277 347L276 344z"/>
<path style="fill:#71c0aa; stroke:none;" d="M223 345L223 346L242 346L223 345z"/>
<path style="fill:#7cb8a7; stroke:none;" d="M275.333 349.667L275.667 350.333L275.333 349.667z"/>
<path style="fill:#464646; stroke:none;" d="M298 349C280.857 359.101 263.452 369.252 246 378.769C238.396 382.916 225.239 388.272 221 396C248.274 401.289 278.571 399.893 293.529 373.246C297.314 366.504 299.84 356.661 298 349z"/>
<path style="fill:#808080; stroke:none;" d="M298 351L298 358L299 358L298 351M293.333 372.667L293.667 373.333L293.333 372.667z"/>
<path style="fill:#309276; stroke:none;" d="M210 374L232 387L233 387L252 376L236 377L210 374z"/>
<path style="fill:#7ea298; stroke:none;" d="M252.667 374.333L253.333 374.667L252.667 374.333z"/>
<path style="fill:#b6dad0; stroke:none;" d="M216.667 375.333L217.333 375.667L216.667 375.333z"/>
<path style="fill:#81b9aa; stroke:none;" d="M248.667 375.333L249.333 375.667L248.667 375.333z"/>
<path style="fill:#98c8ba; stroke:none;" d="M218 376L218 377L245 377L218 376z"/>
<path style="fill:#808080; stroke:none;" d="M290.333 377.667L290.667 378.333L290.333 377.667M257 397L257 398L261 398L257 397M240 398L240 399L250 399L240 398z"/>
<path style="fill:#00ffff; stroke:none;" d="M205 403L206 404L205 403M193 410L194 411L193 410M181 417L182 418L181 417M169 424L170 425L169 424M157 431L158 432L157 431z"/>
<path style="fill:#00ff00; stroke:none;" d="M145 438L146 439L145 438z"/>
<path style="fill:#00ffff; stroke:none;" d="M138 442L139 443L138 442M131 446L132 447L131 446z"/>
<path style="fill:#00ff00; stroke:none;" d="M126 449L127 450L126 449z"/>
<path style="fill:#00ffff; stroke:none;" d="M124 450L125 451L124 450z"/>
<path style="fill:#00ff00; stroke:none;" d="M117 454L118 455L117 454z"/>
<path style="fill:#00ffff; stroke:none;" d="M82 466L83 467L82 466M86 468L87 469L86 468z"/>
</svg>
